<svg xmlns="http://www.w3.org/2000/svg" xmlns:xlink="http://www.w3.org/1999/xlink" width="500" zoomAndPan="magnify" viewBox="0 0 375 374.999991" height="500" preserveAspectRatio="xMidYMid meet" version="1.0"><path stroke-linecap="butt" transform="matrix(1.476202, 0, 0, 1.476202, -210.830182, 61.119238)" fill="none" stroke-linejoin="miter" d="M 199.343648 143.999329 C 197.962359 143.999329 197.052084 143.361608 196.610177 142.086164 L 183.016916 101.774748 C 182.91107 101.226996 182.545901 100.954443 181.921411 100.954443 L 179.031817 100.954443 C 178.380865 100.954443 178.055389 101.279919 178.055389 101.930871 L 178.055389 141.617796 C 178.055389 142.345487 177.833112 142.932932 177.391205 143.374838 C 176.973114 143.79293 176.401546 143.999329 175.671209 143.999329 L 150.397852 143.999329 C 149.643699 143.999329 149.043024 143.79293 148.601117 143.374838 C 148.185672 142.932932 147.976626 142.345487 147.976626 141.617796 L 147.976626 34.390594 C 147.976626 33.660257 148.185672 33.088689 148.601117 32.670598 C 149.043024 32.228691 149.643699 32.009061 150.397852 32.009061 L 192.625079 32.009061 C 199.446848 32.009061 205.477418 33.504134 210.711499 36.499574 C 215.945579 39.468552 219.994185 43.649465 222.859964 49.039668 C 225.749557 54.429871 227.194354 60.64038 227.194354 67.671195 C 227.194354 74.183365 225.828941 79.925506 223.092825 84.897618 C 220.385815 89.845914 216.57007 93.701351 211.648235 96.461284 C 211.23279 96.79999 211.076667 97.228666 211.179867 97.749957 L 227.665368 141.265858 C 227.768568 141.604565 227.821491 141.982965 227.821491 142.39841 C 227.821491 143.467453 227.130846 143.999329 225.749557 143.999329 Z M 179.031817 57.750787 C 178.380865 57.750787 178.055389 58.076263 178.055389 58.727216 L 178.055389 77.125881 C 178.055389 77.750372 178.380865 78.062618 179.031817 78.062618 L 187.507429 78.062618 C 190.373207 78.062618 192.715048 77.162927 194.538243 75.366193 C 196.361439 73.542997 197.27436 71.08208 197.27436 67.983441 C 197.27436 64.808063 196.387901 62.307454 194.617628 60.484258 C 192.87117 58.661062 190.502868 57.750787 187.507429 57.750787 Z M 308.957675 55.366608 C 308.957675 56.096945 308.735399 56.681743 308.293492 57.126296 C 307.875401 57.541741 307.290602 57.750787 306.533804 57.750787 L 267.511062 57.750787 C 266.86011 57.750787 266.534633 58.076263 266.534633 58.727216 L 266.534633 73.765274 C 266.534633 74.389764 266.86011 74.70201 267.511062 74.70201 L 290.050949 74.70201 C 290.805101 74.70201 291.392546 74.924286 291.807991 75.366193 C 292.249898 75.784284 292.472174 76.369083 292.472174 77.125881 L 292.472174 97.90608 C 292.472174 98.660232 292.249898 99.260908 291.807991 99.702815 C 291.392546 100.120906 290.805101 100.327305 290.050949 100.327305 L 267.511062 100.327305 C 266.86011 100.327305 266.534633 100.639551 266.534633 101.266688 L 266.534633 141.617796 C 266.534633 142.345487 266.312357 142.932932 265.87045 143.374838 C 265.455005 143.79293 264.880791 143.999329 264.1531 143.999329 L 238.879742 143.999329 C 238.122944 143.999329 237.524915 143.79293 237.080362 143.374838 C 236.664917 142.932932 236.455871 142.345487 236.455871 141.617796 L 236.455871 34.390594 C 236.455871 33.660257 236.664917 33.088689 237.080362 32.670598 C 237.524915 32.228691 238.122944 32.009061 238.879742 32.009061 L 306.533804 32.009061 C 307.290602 32.009061 307.875401 32.228691 308.293492 32.670598 C 308.735399 33.088689 308.957675 33.660257 308.957675 34.390594 Z M 353.735789 145.288003 C 345.844976 145.288003 338.90413 143.740007 332.915898 140.641368 C 326.951481 137.542728 322.31543 133.139539 319.007745 127.43709 C 315.70006 121.734641 314.048864 115.09281 314.048864 107.516889 L 314.048864 67.983441 C 314.048864 60.537181 315.70006 53.987965 319.007745 48.335793 C 322.31543 42.683621 326.951481 38.336 332.915898 35.290284 C 338.90413 32.241922 345.844976 30.717741 353.735789 30.717741 C 361.626602 30.717741 368.527755 32.21546 374.439249 35.2109 C 380.374559 38.179878 384.997379 42.384607 388.305064 47.827733 C 391.612749 53.270859 393.266591 59.62426 393.266591 66.890582 C 393.266591 67.620918 393.044315 68.232179 392.602408 68.727008 C 392.184317 69.195376 391.599518 69.430883 390.845366 69.430883 L 365.572008 70.563435 C 363.981673 70.563435 363.187829 69.819867 363.187829 68.335378 L 363.187829 66.578336 C 363.187829 63.479697 362.327831 61.01878 360.610481 59.195584 C 358.916946 57.372388 356.625382 56.462113 353.735789 56.462113 C 350.870011 56.462113 348.551985 57.398849 346.781712 59.272322 C 345.011439 61.148441 344.12498 63.582897 344.12498 66.578336 L 344.12498 109.430054 C 344.12498 112.425493 345.011439 114.859949 346.781712 116.733422 C 348.551985 118.583079 350.870011 119.506585 353.735789 119.506585 C 356.625382 119.506585 358.916946 118.609541 360.610481 116.812806 C 362.327831 114.989611 363.187829 112.528693 363.187829 109.430054 L 363.187829 107.516889 C 363.187829 106.0324 363.981673 105.288833 365.572008 105.288833 L 390.845366 106.381692 C 391.599518 106.381692 392.184317 106.603968 392.602408 107.045875 C 393.044315 107.463966 393.266591 108.048765 393.266591 108.805563 C 393.266591 116.045424 391.612749 122.438517 388.305064 127.984843 C 384.997379 133.531168 380.350744 137.802051 374.359865 140.79749 C 368.395448 143.79293 361.520756 145.288003 353.735789 145.288003 Z M 353.735789 145.288003 " stroke="#ff9e5e" stroke-width="3.8" stroke-opacity="1" stroke-miterlimit="4"/></svg>